<svg width="99" height="48" viewBox="0 0 99 48" fill="none" xmlns="http://www.w3.org/2000/svg">
<g clip-path="url(#clip0_94_136)">
<path d="M3.45951 47.9998C1.54928 47.9998 0 46.4464 0 44.5173C0 42.5881 1.54928 41.0347 3.45951 41.0347C8.27174 41.0347 9.70487 35.8991 10.0122 34.7929C10.0247 34.7537 10.039 34.7074 10.0515 34.6682H10.0444C11.0058 31.1002 11.4364 29.4471 11.8367 27.9258C12.9357 23.7254 13.8238 20.3142 16.0288 12.8219C16.1396 12.4407 16.3165 11.7887 16.4934 11.1367C17.957 5.66978 19.4544 0.087059 27.3866 -0.000226662C34.7899 -0.085731 36.6072 5.35983 38.3406 10.5542C38.5621 11.2187 38.7784 11.8778 39.0464 12.576C39.0589 12.6152 39.0732 12.6615 39.0857 12.7007C39.8505 14.637 40.6028 16.5716 41.323 18.4883L46.2531 15.0646C47.8221 13.9708 49.9735 14.3734 51.0529 15.9463C52.1375 17.5264 51.7462 19.6925 50.1772 20.7791L43.7746 25.2307C44.5913 27.5821 45.3632 29.9245 46.0762 32.2296C47.3253 36.2465 47.3843 39.4066 46.4693 41.9022C45.4025 44.7862 43.2457 46.5569 40.224 47.5117C40.1329 47.5384 40.0417 47.5651 39.9488 47.5847C37.2684 48.3543 34.3575 47.9071 31.854 46.5907C29.3558 45.2797 27.2044 43.069 26.0661 40.3222H26.0589C24.5686 36.7934 25.0118 33.6582 26.5825 30.8472C27.9173 28.4442 30.0813 26.4224 32.4544 24.6517C32.4865 24.625 32.5205 24.6054 32.5527 24.5787L35.469 22.5515C34.5469 20.063 33.6177 17.6333 32.6831 15.2765C32.6509 15.191 32.6116 15.1127 32.5777 15.0272C32.3222 14.3431 32.0613 13.5593 31.7932 12.7631C30.8444 9.90581 29.8437 6.91672 27.4384 6.94344C24.7634 6.9755 23.9593 9.98597 23.1677 12.9359C23.0229 13.4685 22.88 14.0082 22.6512 14.7867C20.4873 22.1472 19.6045 25.5317 18.5127 29.7001C17.9051 32.0372 17.2368 34.5792 16.7204 36.4941L16.7079 36.487C16.6954 36.5529 16.6811 36.6117 16.6614 36.6776C16.1057 38.6851 13.5093 48.0016 3.45773 48.0016L3.45951 47.9998ZM39.4788 34.2852C38.9821 32.6517 38.4388 31.0004 37.876 29.3206L36.5215 30.263C34.8542 31.5081 33.389 32.8513 32.6116 34.246C32.0488 35.2543 31.8915 36.3587 32.4151 37.5967L32.4079 37.6039L32.4276 37.6431C32.9244 38.8544 33.8982 39.843 35.0437 40.4415C36.0247 40.9546 37.0843 41.1666 37.9921 40.9296C38.0511 40.91 38.1101 40.8904 38.169 40.8709C39.1232 40.568 39.7648 40.1209 40.0006 39.4814C40.3866 38.4482 40.249 36.7756 39.4771 34.2995H39.4842L39.4771 34.287L39.4788 34.2852Z" fill="#3EDBBD"/>
<path d="M57.9254 19.1548C60.0376 19.1548 61.7513 20.8791 61.7513 23.006V44.1541C61.7513 46.281 60.0376 48 57.9254 48C55.8133 48 54.0996 46.281 54.0996 44.1541V23.006C54.0996 20.8791 55.8133 19.1548 57.9254 19.1548Z" fill="#3EDBBD"/>
<path d="M57.7162 8.06055H58.1344C60.1215 8.06055 61.7315 9.68691 61.7315 11.6891C61.7315 13.6914 60.1232 15.3106 58.1344 15.3106H57.7162C55.722 15.3106 54.1138 13.6914 54.1138 11.6891C54.1138 9.68691 55.722 8.06055 57.7162 8.06055Z" fill="#3EDBBD"/>
<path d="M86.3395 44.53C86.3395 46.4467 84.7956 48.0001 82.8925 48.0001H80.9054C74.6797 48.0001 70.8539 44.1025 70.8539 37.7021V25.4287H66.8172C66.2221 25.4287 65.7415 24.9477 65.7415 24.3563C65.7415 23.9627 65.8898 23.5832 66.1578 23.2929L76.6025 11.9707C76.8026 11.7534 77.0867 11.6287 77.3834 11.6287H77.487C77.9784 11.6287 78.3769 12.0259 78.3769 12.5158V19.1548H83.073C84.792 19.1548 86.1858 20.5639 86.1858 22.2882C86.1858 24.0197 84.7938 25.4287 83.073 25.4287H78.5091V36.6672C78.5091 39.4514 80.0781 41.0582 82.8639 41.0582H82.8961C84.7992 41.0582 86.3431 42.6115 86.3431 44.5282L86.3395 44.53Z" fill="#3EDBBD"/>
<path d="M94.9652 8.06055H95.3833C97.3704 8.06055 98.9858 9.68691 98.9858 11.6891C98.9858 13.6914 97.3704 15.3106 95.3833 15.3106H94.9652C92.9781 15.3106 91.3627 13.6914 91.3627 11.6891C91.3627 9.68691 92.9781 8.06055 94.9652 8.06055ZM95.1742 19.1547C97.2864 19.1547 99.0001 20.8791 99.0001 23.006V44.1541C99.0001 46.281 97.2864 48 95.1742 48C93.0621 48 91.3484 46.281 91.3484 44.1541V23.006C91.3484 20.8791 93.0621 19.1547 95.1742 19.1547Z" fill="#3EDBBD"/>
</g>
<defs>
<clipPath id="clip0_94_136">
<rect width="99" height="48" fill="white"/>
</clipPath>
</defs>
</svg>
